<?xml version="1.0" encoding="UTF-8" standalone="no"?>
<!-- Generator: Adobe Illustrator 13.0.0, SVG Export Plug-In . SVG Version: 6.00 Build 14948)  -->

<svg
   xmlns:dc="http://purl.org/dc/elements/1.1/"
   xmlns:cc="http://creativecommons.org/ns#"
   xmlns:rdf="http://www.w3.org/1999/02/22-rdf-syntax-ns#"
   xmlns:svg="http://www.w3.org/2000/svg"
   xmlns="http://www.w3.org/2000/svg"
   xmlns:sodipodi="http://sodipodi.sourceforge.net/DTD/sodipodi-0.dtd"
   xmlns:inkscape="http://www.inkscape.org/namespaces/inkscape"
   version="1.1"
   id="Layer_1"
   x="0px"
   y="0px"
   width="848.54706"
   height="244.32819"
   viewBox="0 0 848.54706 244.32818"
   enable-background="new 0 0 187.086 53.867"
   xml:space="preserve"
   inkscape:version="0.48.4 r9939"
   sodipodi:docname="redhat-logo.svg"><metadata
     id="metadata5074"><rdf:RDF><cc:Work
         rdf:about=""><dc:format>image/svg+xml</dc:format><dc:type
           rdf:resource="http://purl.org/dc/dcmitype/StillImage" /></cc:Work></rdf:RDF></metadata><defs
     id="defs5072" /><sodipodi:namedview
     pagecolor="#ffffff"
     bordercolor="#666666"
     borderopacity="1"
     objecttolerance="10"
     gridtolerance="10"
     guidetolerance="10"
     inkscape:pageopacity="0"
     inkscape:pageshadow="2"
     inkscape:window-width="1003"
     inkscape:window-height="712"
     id="namedview5070"
     showgrid="false"
     fit-margin-top="0"
     fit-margin-left="0"
     fit-margin-right="0"
     fit-margin-bottom="0"
     inkscape:zoom="2.0311515"
     inkscape:cx="713.39477"
     inkscape:cy="206.22934"
     inkscape:window-x="0"
     inkscape:window-y="27"
     inkscape:window-maximized="0"
     inkscape:current-layer="Layer_1" /><g
     id="g5038"
     transform="scale(4.5355989,4.5355989)"><path
       clip-rule="evenodd"
       d="m 56.02,47.007 c -1.174,-0.271 -2.419,-0.441 -3.679,-0.441 -2.154,0 -4.114,0.375 -5.56,0.975 -0.157,0.08 -0.271,0.246 -0.271,0.436 0,0.068 0.018,0.139 0.044,0.197 0.171,0.496 -0.111,1.035 -1.51,1.342 -2.074,0.455 -3.385,2.596 -4.133,3.307 -0.88,0.836 -3.364,1.348 -2.991,0.85 0.292,-0.389 1.412,-1.604 2.092,-2.916 0.608,-1.174 1.15,-1.506 1.897,-2.627 0.218,-0.328 1.066,-1.482 1.313,-2.393 0.279,-0.893 0.185,-2.01 0.292,-2.471 0.15,-0.662 0.779,-2.104 0.824,-2.918 0.028,-0.457 -1.919,0.658 -2.843,0.658 -0.924,0 -1.825,-0.553 -2.65,-0.594 -1.021,-0.049 -1.678,0.789 -2.604,0.643 -0.526,-0.086 -0.972,-0.549 -1.894,-0.584 -1.313,-0.051 -2.919,0.73 -5.934,0.633 -2.966,-0.098 -5.704,-3.746 -6.079,-4.328 -0.438,-0.682 -0.974,-0.682 -1.556,-0.148 -0.584,0.535 -1.303,0.117 -1.508,-0.24 -0.389,-0.682 -1.431,-2.674 -3.04,-3.088 -2.227,-0.578 -3.354,1.23 -3.21,2.672 0.15,1.461 1.095,1.871 1.532,2.65 0.438,0.777 0.663,1.279 1.485,1.625 0.584,0.242 0.802,0.604 0.628,1.084 -0.154,0.416 -0.76,0.51 -1.161,0.531 -0.849,0.041 -1.442,-0.189 -1.876,-0.469 -0.504,-0.32 -0.914,-0.768 -1.355,-1.525 -0.509,-0.838 -1.313,-1.203 -2.246,-1.203 -0.446,0 -0.864,0.119 -1.233,0.311 -1.467,0.76 -3.21,1.213 -5.088,1.213 H 1.589 C 0.56,37.132 0,33.858 0,30.452 0,13.634 13.634,0 30.454,0 47.273,0 60.906,13.634 60.906,30.452 60.905,36.556 59.111,42.239 56.02,47.007 l 0,0 z"
       id="path5040"
       inkscape:connector-curvature="0"
       style="fill:#020001;fill-rule:evenodd" /><path
       clip-rule="evenodd"
       d="m 37.159,44.214 c 0.158,0.152 0.428,0.664 0.098,1.318 -0.184,0.344 -0.384,0.588 -0.742,0.873 -0.427,0.344 -1.264,0.738 -2.414,0.012 -0.616,-0.393 -0.653,-0.523 -1.505,-0.414 -0.61,0.08 -0.851,-0.533 -0.633,-1.047 0.22,-0.508 1.118,-0.92 2.238,-0.268 0.503,0.297 1.287,0.922 1.973,0.367 0.287,-0.229 0.456,-0.379 0.851,-0.836 0.02,-0.02 0.044,-0.031 0.072,-0.031 0.024,0 0.047,0.01 0.062,0.026 l 0,0 z"
       id="path5042"
       inkscape:connector-curvature="0"
       style="fill:#020001;fill-rule:evenodd" /><path
       clip-rule="evenodd"
       d="m 47.639,22.349 c -0.301,1.014 -0.729,2.305 -2.632,3.284 -0.278,0.141 -0.383,-0.09 -0.257,-0.31 0.722,-1.223 0.847,-1.53 1.058,-2.013 C 46.1,22.605 46.253,21.602 45.671,19.506 44.527,15.385 42.136,9.877 40.4,8.088 38.723,6.364 35.688,5.879 32.942,6.582 31.93,6.841 29.954,7.87 26.286,7.044 c -6.349,-1.429 -7.287,1.749 -7.652,3.133 -0.364,1.385 -1.24,5.321 -1.24,5.321 -0.291,1.601 -0.673,4.387 9.183,6.266 4.592,0.874 4.825,2.063 5.028,2.914 0.363,1.531 0.946,2.406 1.603,2.844 0.656,0.438 0,0.799 -0.729,0.874 -1.955,0.203 -9.182,-1.87 -13.457,-4.299 -3.499,-2.138 -3.558,-4.063 -2.755,-5.696 -5.285,-0.57 -9.25,0.496 -9.969,2.998 -1.235,4.291 9.438,11.625 21.592,15.303 12.752,3.863 25.869,1.168 27.326,-6.852 0.663,-3.639 -2.405,-6.333 -7.577,-7.501 l 0,0 z"
       id="path5044"
       inkscape:connector-curvature="0"
       style="fill:#e03127;fill-rule:evenodd" /><path
       clip-rule="evenodd"
       d="m 59.774,45.679 h 0.207 l 0.308,0.51 h 0.2 l -0.337,-0.52 c 0.175,-0.018 0.307,-0.111 0.307,-0.32 0,-0.232 -0.139,-0.336 -0.415,-0.336 h -0.447 v 1.176 h 0.177 v -0.51 l 0,0 z m 0,-0.151 v -0.365 h 0.245 c 0.124,0 0.254,0.027 0.254,0.172 0,0.182 -0.134,0.193 -0.286,0.193 h -0.213 l 0,0 z"
       id="path5046"
       inkscape:connector-curvature="0"
       style="fill:#020001;fill-rule:evenodd" /><path
       clip-rule="evenodd"
       d="m 61.137,45.603 c 0,0.635 -0.515,1.15 -1.153,1.15 -0.636,0 -1.152,-0.516 -1.152,-1.15 0,-0.639 0.516,-1.152 1.152,-1.152 0.639,-10e-4 1.153,0.513 1.153,1.152 l 0,0 z m -1.153,-0.948 c -0.521,0 -0.947,0.422 -0.947,0.947 0,0.525 0.425,0.945 0.947,0.945 0.521,0 0.95,-0.42 0.95,-0.945 0,-0.525 -0.429,-0.947 -0.95,-0.947 l 0,0 z"
       id="path5048"
       inkscape:connector-curvature="0"
       style="fill:#020001;fill-rule:evenodd" /><path
       clip-rule="evenodd"
       d="m 28.083,14.5 c -3.517,0.255 -3.883,0.635 -4.542,1.337 -0.929,0.99 -2.152,-1.284 -2.152,-1.284 -0.736,-0.155 -1.625,-1.339 -1.146,-2.444 0.474,-1.093 1.348,-0.766 1.622,-0.428 0.333,0.415 1.043,1.093 1.967,1.069 0.922,-0.022 1.989,-0.217 3.475,-0.217 1.504,0 2.518,0.563 2.575,1.043 0.049,0.413 -0.122,0.802 -1.799,0.924 l 0,0 z"
       id="path5050"
       inkscape:connector-curvature="0"
       style="fill:#020001;fill-rule:evenodd" /><path
       clip-rule="evenodd"
       d="m 31.779,8.688 c -0.005,0 -0.01,0 -0.015,0 -0.055,0 -0.099,-0.041 -0.099,-0.092 0,-0.037 0.023,-0.068 0.056,-0.083 0.681,-0.36 1.699,-0.648 2.862,-0.767 0.35,-0.035 0.691,-0.054 1.021,-0.058 0.058,0 0.115,0 0.174,0.002 1.951,0.044 3.515,0.821 3.492,1.733 -0.024,0.912 -1.623,1.617 -3.577,1.574 -0.631,-0.016 -1.225,-0.106 -1.734,-0.255 -0.062,-0.015 -0.106,-0.065 -0.106,-0.125 0,-0.062 0.044,-0.114 0.106,-0.129 1.219,-0.281 2.04,-0.742 1.981,-1.179 -0.076,-0.577 -1.669,-0.889 -3.557,-0.7 -0.208,0.022 -0.409,0.05 -0.604,0.079 l 0,0 z"
       id="path5052"
       inkscape:connector-curvature="0"
       style="fill:#020001;fill-rule:evenodd" /><path
       clip-rule="evenodd"
       d="m 76.897,33.593 c 0,-2.734 -0.058,-4.748 -0.168,-6.564 h 4.472 l 0.193,3.878 h 0.144 c 1.005,-2.875 3.389,-4.342 5.593,-4.342 0.503,0 0.797,0.019 1.21,0.111 v 4.863 c -0.484,-0.092 -0.935,-0.145 -1.557,-0.145 -2.461,0 -4.168,1.566 -4.629,3.906 -0.088,0.457 -0.135,1.002 -0.135,1.559 v 10.592 h -5.167 l 0.044,-13.858 0,0 z"
       id="path5054"
       inkscape:connector-curvature="0"
       style="fill:#020001;fill-rule:evenodd" /><path
       clip-rule="evenodd"
       d="m 94.575,38.632 c 0.138,3.697 3.001,5.318 6.31,5.318 2.373,0 4.072,-0.371 5.634,-0.947 l 0.766,3.557 c -1.748,0.738 -4.173,1.295 -7.139,1.295 -6.63,0 -10.516,-4.096 -10.516,-10.355 0,-5.639 3.419,-10.971 9.988,-10.971 6.643,0 8.804,5.461 8.804,9.934 0,0.959 -0.083,1.73 -0.185,2.205 l -13.662,-0.036 0,0 z m 8.983,-3.6 c 0.022,-1.893 -0.802,-4.979 -4.261,-4.979 -3.179,0 -4.5,2.887 -4.731,4.979 h 8.992 l 0,0 z"
       id="path5056"
       inkscape:connector-curvature="0"
       style="fill:#020001;fill-rule:evenodd" /><path
       clip-rule="evenodd"
       d="m 168.765,42.669 c 0,1.592 0.062,3.242 0.293,4.783 h -1.836 l -0.292,-2.885 h -0.095 c -0.977,1.553 -3.22,3.346 -6.421,3.346 -4.051,0 -5.937,-2.854 -5.937,-5.537 0,-4.646 4.102,-7.449 12.294,-7.365 v -0.535 c 0,-1.99 -0.388,-5.967 -5.151,-5.934 -1.761,0 -3.598,0.471 -5.054,1.5 l -0.635,-1.449 c 1.84,-1.247 4.086,-1.74 5.907,-1.74 5.812,0 6.926,4.361 6.926,7.959 v 7.857 l 10e-4,0 z m -1.993,-5.981 c -4.385,-0.127 -10.177,0.539 -10.177,5.375 0,2.893 1.91,4.193 4.009,4.193 3.357,0 5.264,-2.078 5.957,-4.037 0.148,-0.432 0.211,-0.863 0.211,-1.207 v -4.324 l 0,0 z"
       id="path5058"
       inkscape:connector-curvature="0"
       style="fill:#020001;fill-rule:evenodd" /><path
       clip-rule="evenodd"
       d="m 176.974,22.875 v 4.438 h 5.739 v 1.615 h -5.739 v 13.09 c 0,2.561 0.797,4.164 2.959,4.164 1.038,0 1.771,-0.135 2.286,-0.314 l 0.243,1.541 c -0.652,0.275 -1.565,0.484 -2.78,0.484 -1.471,0 -2.687,-0.461 -3.475,-1.428 -0.912,-1.059 -1.226,-2.746 -1.226,-4.803 V 28.929 h -3.396 v -1.615 h 3.396 v -3.703 l 1.993,-0.736 0,0 z"
       id="path5060"
       inkscape:connector-curvature="0"
       style="fill:#020001;fill-rule:evenodd" /><path
       clip-rule="evenodd"
       d="m 144.173,26.853 c -1.531,0 -2.904,0.442 -4.057,1.154 -1.197,0.701 -2.173,1.783 -2.751,2.904 h -0.082 v -9.965 l -1.992,-0.542 v 27.048 h 1.992 V 35.138 c 0,-0.818 0.062,-1.385 0.272,-1.984 0.859,-2.504 3.219,-4.561 6.073,-4.561 4.121,0 5.55,3.307 5.55,6.932 v 11.928 h 1.991 V 35.308 c 10e-4,-7.503 -5.086,-8.455 -6.996,-8.455 l 0,0 z"
       id="path5062"
       inkscape:connector-curvature="0"
       style="fill:#020001;fill-rule:evenodd" /><path
       clip-rule="evenodd"
       d="m 130.672,19.153 -5.163,-1.399 v 11.474 h -0.084 c -0.913,-1.508 -2.928,-2.662 -5.725,-2.662 -4.911,0 -9.188,4.064 -9.156,10.908 0,6.279 3.862,10.439 8.739,10.439 2.947,0 5.413,-1.406 6.632,-3.695 h 0.094 l 0.231,3.234 h 4.601 c -0.094,-1.389 -0.169,-3.637 -0.169,-5.729 v -22.57 l 0,0 z m -5.163,19.442 c 0,0.543 -0.038,1.047 -0.156,1.508 -0.521,2.236 -2.348,3.676 -4.458,3.676 -3.253,0 -5.113,-2.742 -5.113,-6.494 0,-3.789 1.844,-6.721 5.17,-6.721 2.323,0 3.984,1.637 4.441,3.625 0.088,0.418 0.116,0.936 0.116,1.348 v 3.058 l 0,0 z"
       id="path5064"
       inkscape:connector-curvature="0"
       style="fill:#020001;fill-rule:evenodd" /><path
       clip-rule="evenodd"
       d="m 185.453,46.554 h 0.247 l 0.372,0.613 h 0.238 l -0.399,-0.623 c 0.207,-0.027 0.365,-0.133 0.365,-0.387 0,-0.279 -0.166,-0.4 -0.5,-0.4 h -0.534 v 1.41 h 0.211 v -0.613 l 0,0 z m 0,-0.18 v -0.436 h 0.292 c 0.148,0 0.309,0.031 0.309,0.205 0,0.217 -0.161,0.23 -0.343,0.23 h -0.258 l 0,0.001 z"
       id="path5066"
       inkscape:connector-curvature="0"
       style="fill:#020001;fill-rule:evenodd" /><path
       clip-rule="evenodd"
       d="m 187.086,46.464 c 0,0.762 -0.616,1.381 -1.379,1.381 -0.763,0 -1.381,-0.619 -1.381,-1.381 0,-0.764 0.618,-1.383 1.381,-1.383 0.763,0 1.379,0.619 1.379,1.383 l 0,0 z m -1.378,-1.137 c -0.629,0 -1.138,0.508 -1.138,1.137 0,0.627 0.509,1.137 1.138,1.137 0.626,0 1.133,-0.51 1.133,-1.137 -0.001,-0.629 -0.508,-1.137 -1.133,-1.137 l 0,0 z"
       id="path5068"
       inkscape:connector-curvature="0"
       style="fill:#020001;fill-rule:evenodd" /></g></svg>