<?xml version="1.0" encoding="UTF-8" standalone="no"?>
<!-- Generator: Adobe Illustrator 14.0.0, SVG Export Plug-In . SVG Version: 6.00 Build 43363)  -->

<svg
   xmlns:dc="http://purl.org/dc/elements/1.1/"
   xmlns:cc="http://creativecommons.org/ns#"
   xmlns:rdf="http://www.w3.org/1999/02/22-rdf-syntax-ns#"
   xmlns:svg="http://www.w3.org/2000/svg"
   xmlns="http://www.w3.org/2000/svg"
   xmlns:sodipodi="http://sodipodi.sourceforge.net/DTD/sodipodi-0.dtd"
   xmlns:inkscape="http://www.inkscape.org/namespaces/inkscape"
   version="1.1"
   id="Ebene_1"
   x="0px"
   y="0px"
   width="501.05px"
   height="495.049px"
   viewBox="0 0 501.05 495.049"
   enable-background="new 0 0 501.05 495.049"
   xml:space="preserve"
   inkscape:version="0.48.4 r9939"
   sodipodi:docname="dell-logo.svg"><metadata
     id="metadata15"><rdf:RDF><cc:Work
         rdf:about=""><dc:format>image/svg+xml</dc:format><dc:type
           rdf:resource="http://purl.org/dc/dcmitype/StillImage" /></cc:Work></rdf:RDF></metadata><defs
     id="defs13" /><sodipodi:namedview
     pagecolor="#ffffff"
     bordercolor="#666666"
     borderopacity="1"
     objecttolerance="10"
     gridtolerance="10"
     guidetolerance="10"
     inkscape:pageopacity="0"
     inkscape:pageshadow="2"
     inkscape:window-width="737"
     inkscape:window-height="480"
     id="namedview11"
     showgrid="false"
     inkscape:zoom="0.47672048"
     inkscape:cx="250.52499"
     inkscape:cy="247.52451"
     inkscape:window-x="0"
     inkscape:window-y="27"
     inkscape:window-maximized="0"
     inkscape:current-layer="Ebene_1" /><g
     id="g3"
     style="fill:#000000;fill-opacity:1"><path
       fill-rule="evenodd"
       clip-rule="evenodd"
       fill="#0083CA"
       d="M241.281,15.478c4.793,0,9.586,0,14.379,0   c69.941,3.944,119.808,30.502,156.78,67.722s64.301,86.31,67.953,156.548c0,4.639,0,9.276,0,13.915   c-3.551,71.361-31.363,118.459-67.953,156.78c-38.436,36.401-85.688,63.979-157.012,67.489c-4.716,0-9.432,0-14.147,0   c-69.932-3.953-119.809-30.499-156.78-67.721C47.53,372.99,20.2,323.901,16.548,253.663c0-4.639,0-9.276,0-13.915   c0.181-0.051,0.27-0.194,0.232-0.464c3.497-69.97,30.976-119.57,67.722-156.316C121.417,46.051,171.801,19.303,241.281,15.478z    M195.824,48.643c-13.78,3.69-26.138,8.376-37.339,13.915c-34.094,16.859-62.21,40.979-81.869,71.896   c-19.189,30.178-35.802,68.999-33.397,119.904c1.517,32.093,8.84,59.089,20.409,82.101c22.844,45.437,57.625,78.916,105.757,99.264   c23.802,10.061,53.295,17.12,86.507,15.538c31.858-1.517,59.462-8.678,82.333-20.177c44.824-22.538,80.15-57.312,99.728-105.293   c9.902-24.271,17.389-52.309,15.77-86.276c-3.064-64.343-29.237-107.971-63.778-141.241   c-17.091-16.462-37.671-30.465-61.923-40.586c-23.531-9.82-54.164-17.101-86.972-15.539   C224.923,42.917,209.708,44.925,195.824,48.643z"
       id="path5"
       style="fill:#000000;fill-opacity:1" /><path
       fill-rule="evenodd"
       clip-rule="evenodd"
       fill="#0083CA"
       d="M227.134,186.637c7.348,4.866,14.865,9.565,21.801,14.843   c-15.671,9.84-31.034,19.989-46.616,29.918c2.366,1.809,5.056,3.293,7.421,5.102c15.712-9.954,31.429-19.902,47.081-29.918   c7.019,4.345,13.931,8.798,20.41,13.684c-15.683,9.906-30.842,20.336-46.385,30.382c2.303,1.872,5.126,3.223,7.653,4.87   c16.065-9.832,31.73-20.066,47.544-30.149c0-10.978,0-21.956,0-32.934c11.596,0,23.192,0,34.789,0c0,21.878,0,43.757,0,65.635   c9.817,0.541,20.641,0.077,30.846,0.231c0,10.282,0,20.564,0,30.846c-21.879,0-43.757,0-65.635,0c0-10.437,0-20.873,0-31.31   c-19.285,11.716-39.046,24.965-58.445,37.34c-20.201-13.118-39.67-26.97-59.836-40.122c-5.841,18.516-19.716,32.447-42.674,34.092   c-14.319,1.025-30.588-0.764-47.081,0c0-32.236,0-64.475,0-96.712c20.619,1.366,43.258-2.757,59.604,2.319   c14.453,4.489,24.7,16.021,29.454,30.382C187.247,212.461,207.104,199.464,227.134,186.637z M111.172,223.513   c0,11.596,0,23.192,0,34.788c8.287,0.041,14.589,0.522,19.481-3.246c7.277-5.606,8.743-19.5,2.319-26.904   c-4.287-4.94-11.525-5.977-21.569-5.334C111.134,222.856,111.152,223.184,111.172,223.513z"
       id="path7"
       style="fill:#000000;fill-opacity:1" /><path
       fill-rule="evenodd"
       clip-rule="evenodd"
       fill="#0083CA"
       d="M360.722,192.435c11.596,0,23.191,0,34.788,0   c0,21.956,0,43.911,0,65.866c10.204,0,20.409,0,30.614,0c0,10.282,0,20.564,0,30.846c-21.879,0-43.757,0-65.635,0   c0-32.006,0-64.01,0-96.016C360.47,192.802,360.451,192.474,360.722,192.435z"
       id="path9"
       style="fill:#000000;fill-opacity:1" /></g></svg>