<?xml version="1.0" encoding="UTF-8" standalone="no"?>
<!-- Created with Inkscape (http://www.inkscape.org/) -->

<svg
   xmlns:dc="http://purl.org/dc/elements/1.1/"
   xmlns:cc="http://creativecommons.org/ns#"
   xmlns:rdf="http://www.w3.org/1999/02/22-rdf-syntax-ns#"
   xmlns:svg="http://www.w3.org/2000/svg"
   xmlns="http://www.w3.org/2000/svg"
   xmlns:xlink="http://www.w3.org/1999/xlink"
   version="1.1"
   width="230.06888"
   height="66.73085"
   id="svg3344">
  <defs
     id="defs3346">
    <linearGradient
       x1="399.06931"
       y1="663.08112"
       x2="401.867"
       y2="660.28339"
       id="linearGradient3215"
       xlink:href="#SVGID_5_"
       gradientUnits="userSpaceOnUse" />
    <linearGradient
       x1="399.06931"
       y1="663.08112"
       x2="401.867"
       y2="660.28339"
       id="SVGID_5_"
       gradientUnits="userSpaceOnUse">
      <stop
         id="stop2902"
         style="stop-color:#88221a;stop-opacity:1"
         offset="0" />
      <stop
         id="stop2904"
         style="stop-color:#c43827;stop-opacity:1"
         offset="1" />
    </linearGradient>
    <linearGradient
       x1="399.06931"
       y1="663.08112"
       x2="401.867"
       y2="660.28339"
       id="linearGradient3270"
       xlink:href="#SVGID_5_"
       gradientUnits="userSpaceOnUse" />
    <linearGradient
       x1="399.06931"
       y1="663.08112"
       x2="401.867"
       y2="660.28339"
       id="linearGradient3272"
       gradientUnits="userSpaceOnUse">
      <stop
         id="stop3274"
         style="stop-color:#88221a;stop-opacity:1"
         offset="0" />
      <stop
         id="stop3276"
         style="stop-color:#c43827;stop-opacity:1"
         offset="1" />
    </linearGradient>
    <clipPath
       id="SVGID_6_">
      <use
         id="use2909"
         style="overflow:visible"
         x="0"
         y="0"
         width="715.55798"
         height="742.133"
         xlink:href="#SVGID_4_" />
    </clipPath>
    <linearGradient
       x1="409.9512"
       y1="668.42767"
       x2="428.87079"
       y2="649.50812"
       id="linearGradient3150"
       xlink:href="#SVGID_7_"
       gradientUnits="userSpaceOnUse" />
    <linearGradient
       x1="409.9512"
       y1="668.42767"
       x2="428.87079"
       y2="649.50812"
       id="SVGID_7_"
       gradientUnits="userSpaceOnUse">
      <stop
         id="stop2914"
         style="stop-color:#88221a;stop-opacity:1"
         offset="0" />
      <stop
         id="stop2916"
         style="stop-color:#c43827;stop-opacity:1"
         offset="1" />
    </linearGradient>
    <linearGradient
       x1="429.74899"
       y1="690.01862"
       x2="431.22809"
       y2="688.53943"
       id="linearGradient3146"
       xlink:href="#SVGID_3_"
       gradientUnits="userSpaceOnUse" />
    <linearGradient
       x1="429.74899"
       y1="690.01862"
       x2="431.22809"
       y2="688.53943"
       id="SVGID_3_"
       gradientUnits="userSpaceOnUse">
      <stop
         id="stop2888"
         style="stop-color:#c63827;stop-opacity:1"
         offset="0" />
      <stop
         id="stop2890"
         style="stop-color:#88221a;stop-opacity:1"
         offset="1" />
    </linearGradient>
  </defs>
  <metadata
     id="metadata3349">
    <rdf:RDF>
      <cc:Work
         rdf:about="">
        <dc:format>image/svg+xml</dc:format>
        <dc:type
           rdf:resource="http://purl.org/dc/dcmitype/StillImage" />
        <dc:title></dc:title>
      </cc:Work>
    </rdf:RDF>
  </metadata>
  <g
     transform="translate(-56.394151,-298.99676)"
     id="layer1">
    <path
       d="m 99.855366,319.26066 -22.472021,1.9542 c -1.044254,0.0918 -1.900762,1.01411 -1.904873,2.05836 l -0.0055,2.27352 -2.584598,0.22474 2.529781,2.50101 0.06578,17.18358 22.519986,-1.97064 c 1.049735,-0.0918 1.904873,-1.0141 1.907614,-2.06658 l 0.0027,-2.63393 2.476335,-0.21653 -2.466742,-2.4407 -0.06852,-16.86703 z m -39.725512,-16.10783 47.631416,-4.14139 c 1.04974,-0.0891 1.99944,0.27272 2.65586,0.92914 l 1.51431,1.49649 6.05722,5.98871 c 0.60298,0.59612 0.96888,1.42796 0.96888,2.38314 l -0.037,11.96233 -2.5613,0.22201 2.501,2.4777 0.0713,18.14015 -2.47085,0.2179 2.46948,2.43936 -0.0233,12.3296 c -0.007,1.9967 -1.63353,3.7645 -3.64666,3.9426 l -47.628683,4.173 c -1.051106,0.092 -1.999432,-0.2741 -2.662711,-0.9292 l -7.568787,-7.4852 c -0.600241,-0.5947 -0.964771,-1.4321 -0.96203,-2.379 l 0.0233,-12.32824 2.476335,-0.2179 -2.470853,-2.44208 -0.07263,-18.1374 2.59282,-0.22749 -2.533892,-2.50648 0.03289,-11.96233 c 0.0027,-2.00766 1.636272,-3.77138 3.643926,-3.94542 z"
       id="path2879"
       style="fill:#88221a" />
    <g
       transform="matrix(1.3704123,0,0,1.3704123,-487.03741,-598.23312)"
       id="g2881">
      <path
         d="m 410.476,688.617 16.433,-1.438 5.523,5.463 -20.58,1.802 c -0.765,0.069 -1.382,-0.497 -1.382,-1.264 l 0.006,-1.923 -1.802,-1.781 1.805,-0.158 -0.003,-0.701 z"
         id="path2883"
         style="fill:#c63827" />
    </g>
    <g
       transform="matrix(1.3704123,0,0,1.3704123,-487.03741,-598.23312)"
       id="g2885">
      <linearGradient
         x1="429.74899"
         y1="690.01862"
         x2="431.22809"
         y2="688.53943"
         id="linearGradient15387"
         gradientUnits="userSpaceOnUse">
        <stop
           id="stop15389"
           style="stop-color:#c63827;stop-opacity:1"
           offset="0" />
        <stop
           id="stop15391"
           style="stop-color:#88221a;stop-opacity:1"
           offset="1" />
      </linearGradient>
      <path
         d="m 432.432,692.642 -5.523,-5.463 c 0.766,-0.067 1.39,-0.74 1.392,-1.508 l 5.523,5.465 c -0.003,0.766 -0.629,1.438 -1.392,1.506 z"
         id="path2892"
         style="fill:url(#linearGradient3146)" />
    </g>
    <g
       transform="matrix(1.3704123,0,0,1.3704123,-487.03741,-598.23312)"
       id="g2894">
      <g
         id="g2896">
        <defs
           id="defs2898">
          <path
             d="m 402.137,666.088 -5.523,-5.463 c 0.002,-1.463 1.193,-2.75 2.659,-2.877 l 5.522,5.463 c -1.463,0.129 -2.655,1.415 -2.658,2.877 z"
             id="SVGID_4_" />
        </defs>
        <linearGradient
           x1="399.06931"
           y1="663.08112"
           x2="401.867"
           y2="660.28339"
           id="linearGradient15398"
           gradientUnits="userSpaceOnUse">
          <stop
             id="stop15400"
             style="stop-color:#88221a;stop-opacity:1"
             offset="0" />
          <stop
             id="stop15402"
             style="stop-color:#c43827;stop-opacity:1"
             offset="1" />
        </linearGradient>
        <use
           id="use2906"
           style="fill:url(#linearGradient3215);overflow:visible"
           x="0"
           y="0"
           width="715.55798"
           height="742.133"
           xlink:href="#SVGID_4_" />
        <clipPath
           id="clipPath15405">
          <use
             id="use15407"
             style="overflow:visible"
             x="0"
             y="0"
             width="715.55798"
             height="742.133"
             xlink:href="#SVGID_4_" />
        </clipPath>
        <g
           clip-path="url(#SVGID_6_)"
           id="g2911">
          <linearGradient
             x1="409.9512"
             y1="668.42767"
             x2="428.87079"
             y2="649.50812"
             id="linearGradient15410"
             gradientUnits="userSpaceOnUse">
            <stop
               id="stop15412"
               style="stop-color:#88221a;stop-opacity:1"
               offset="0" />
            <stop
               id="stop15414"
               style="stop-color:#c43827;stop-opacity:1"
               offset="1" />
          </linearGradient>
          <polygon
             points="434.029,654.726 439.55,660.187 404.795,663.211 399.272,657.748 "
             id="polygon2918"
             style="fill:url(#linearGradient3150)" />
        </g>
      </g>
    </g>
    <g
       transform="matrix(1.3704123,0,0,1.3704123,-487.03741,-598.23312)"
       id="g2920">
      <path
         d="m 442.18,688.479 -0.017,8.997 c -0.005,1.457 -1.192,2.747 -2.661,2.877 l -34.755,3.045 c -1.463,0.129 -2.65,-0.955 -2.646,-2.413 l 0.017,-8.995 8.358,-0.733 -0.006,1.923 c 0,0.767 0.617,1.333 1.382,1.264 l 20.58,-1.802 c 0.764,-0.067 1.39,-0.739 1.392,-1.506 l 0.004,-1.924 8.352,-0.733 z"
         id="path2922"
         style="fill:#d83c27" />
    </g>
    <g
       transform="matrix(1.3704123,0,0,1.3704123,-487.03741,-598.23312)"
       id="g2924">
      <polygon
         points="433.831,687.271 433.778,674.035 442.129,673.303 442.181,686.54 "
         id="polygon2926"
         style="fill:#e1473b" />
    </g>
    <g
       transform="matrix(1.3704123,0,0,1.3704123,-487.03741,-598.23312)"
       id="g2928">
      <path
         d="m 435.968,655.403 1.105,1.092 4.42,4.37 c -0.482,-0.479 -1.175,-0.743 -1.943,-0.679 l -34.755,3.024 -5.522,-5.463 34.757,-3.022 c 0.765,-0.065 1.458,0.2 1.938,0.678 z"
         id="path2930"
         style="fill:#c43827" />
    </g>
    <g
       transform="matrix(1.3704123,0,0,1.3704123,-487.03741,-598.23312)"
       id="g2932">
      <polygon
         points="402.122,690.048 402.07,676.812 410.428,676.078 410.479,689.317 "
         id="polygon2934"
         style="fill:#e1473b" />
    </g>
    <g
       transform="matrix(1.3704123,0,0,1.3704123,-487.03741,-598.23312)"
       id="g2936">
      <path
         d="m 404.795,663.211 34.755,-3.024 c 1.467,-0.123 2.652,0.955 2.65,2.418 l -0.027,8.729 -8.352,0.729 0.002,-1.66 c 0.002,-0.767 -0.619,-1.331 -1.381,-1.263 l -20.581,1.789 c -0.762,0.067 -1.387,0.74 -1.39,1.502 l -0.004,1.659 -8.354,0.729 0.023,-8.729 c 0.004,-1.464 1.196,-2.75 2.659,-2.879 z"
         id="path2938"
         style="fill:#e4574e" />
    </g>
    <g
       transform="matrix(1.3704123,0,0,1.3704123,-487.03741,-598.23312)"
       id="g2940">
      <path
         d="m 433.827,689.212 -0.004,1.924 c -0.002,0.767 -0.628,1.438 -1.392,1.506 l -20.58,1.802 c -0.688,0.062 -1.257,-0.391 -1.363,-1.038 0.1,0.562 0.593,0.949 1.194,0.895 l 20.734,-1.813 c 0.684,-0.061 1.248,-0.666 1.25,-1.352 l 0.005,-1.924 v -0.155 l 0.156,0.155 z"
         id="path2942"
         style="opacity:0.3;fill:#ffffff" />
    </g>
    <g
       transform="matrix(1.3704123,0,0,1.3704123,-487.03741,-598.23312)"
       id="g2944">
      <path
         d="m 410.314,693.18 0.005,-1.909 0.156,-0.014 -0.006,1.923 c 0,0.767 0.617,1.333 1.382,1.264 l 20.58,-1.802 c 0.764,-0.067 1.39,-0.739 1.392,-1.506 l 0.004,-1.924 0.158,-0.014 -0.007,1.938 c -0.002,0.849 -0.69,1.588 -1.534,1.661 l -20.578,1.803 c -0.855,0.076 -1.553,-0.561 -1.552,-1.42 z"
         id="path2946"
         style="opacity:0.3;fill:#ffffff" />
    </g>
    <path
       d="m 150.88815,330.67071 c 0,-3.34655 -0.14664,-5.29116 -0.1946,-6.83014 h 3.32873 l 0.19734,2.80798 h 0.0959 c 1.32656,-2.31052 3.1862,-3.12454 5.04997,-3.12454 4.16194,0 6.85617,4.02764 6.85617,11.2223 0,8.14162 -3.62337,11.35796 -7.34541,11.35796 -2.25433,0 -3.52881,-1.3142 -4.16331,-2.53524 h -0.10278 v 10.86054 h -3.72067 v -23.75886 z m 3.72066,7.06036 c 0,0.63313 0.0521,1.26626 0.19734,1.80895 0.73454,3.1218 2.45167,3.66859 3.47948,3.66859 3.1355,0 4.16331,-3.98379 4.16331,-8.37459 0,-4.52373 -1.17581,-8.32525 -4.21401,-8.32525 -1.71302,0 -3.2794,1.94872 -3.474,3.93856 -0.0987,0.49746 -0.15074,1.08537 -0.15074,1.67327 v 5.61047 z"
       id="path2950"
       style="fill:#6f6e6f" />
    <path
       d="m 172.94356,335.1081 c 0,6.74243 2.88609,8.14299 5.58032,8.14299 1.66779,0 2.98887,-0.36453 3.91938,-0.81539 l 0.63724,2.53527 c -1.32108,0.6331 -3.32736,1.0415 -5.24046,1.0415 -5.68173,0 -8.62126,-4.29898 -8.62126,-10.99481 0,-7.059 3.28351,-11.49502 8.03473,-11.49502 4.79781,0 6.76024,4.70736 6.76024,9.59425 0,0.85925 -0.0493,1.44716 -0.10004,1.99121 h -10.97015 z m 7.44408,-2.57774 c 0.0507,-4.34695 -1.71439,-6.29156 -3.52607,-6.29156 -2.49963,0 -3.72478,3.30269 -3.87279,6.29156 h 7.39886 z"
       id="path2952"
       style="fill:#6f6e6f" />
    <path
       d="m 187.70838,329.49489 c 0,-2.57911 -0.14526,-3.8906 -0.19871,-5.65432 h 3.28214 l 0.19871,2.6682 h 0.0973 c 1.02644,-1.76235 2.9409,-2.98613 5.4378,-2.98613 3.27939,0 5.73106,2.21733 5.73106,7.51123 v 14.7059 h -3.77275 v -14.07414 c 0,-2.62297 -0.5372,-5.20346 -3.2835,-5.20346 -1.56775,0 -3.08617,1.22241 -3.5247,3.52881 -0.14801,0.54269 -0.19871,1.22378 -0.19871,1.98984 v 13.75755 h -3.76864 v -16.24348 z"
       id="path2954"
       style="fill:#6f6e6f" />
    <path
       d="m 205.80194,342.1205 c 0.82773,0.49883 2.29681,1.13196 3.81934,1.13196 2.10632,0 3.47673,-1.22103 3.47673,-3.16702 0,-1.67601 -0.63861,-2.8066 -3.0382,-4.30035 -3.08206,-1.80895 -4.75122,-3.71108 -4.75122,-6.19975 0,-3.57403 2.83949,-6.0627 6.51494,-6.0627 1.86376,0 3.23143,0.5879 4.21402,1.13059 l -0.98259,2.62571 c -0.92914,-0.58928 -1.91035,-0.99766 -3.18347,-0.99766 -2.00902,0 -3.03683,1.35808 -3.03683,2.80386 0,1.45127 0.58654,2.26392 2.9409,3.75904 2.7422,1.62805 4.89786,3.62063 4.89786,6.65061 0,4.3908 -3.23281,6.51768 -7.15218,6.51768 -1.7185,0 -3.62612,-0.4988 -4.65392,-1.2676 l 0.93462,-2.62437 z"
       id="path2956"
       style="fill:#c43827" />
    <path
       d="m 224.27235,318.72619 v 5.11301 h 4.55662 v 2.62434 h -4.55662 v 13.03125 c 0,2.85183 1.07989,3.622 2.45167,3.622 0.63587,0 1.12648,-0.0452 1.51842,-0.13704 l 0.19871,2.66952 c -0.68932,0.2262 -1.57049,0.3632 -2.79564,0.3632 -1.51842,0 -2.8395,-0.3632 -3.72204,-1.3129 -0.98122,-0.99624 -1.42112,-2.48862 -1.42112,-5.5186 v -12.71606 h -2.88746 v -2.62434 h 2.88746 v -3.71107 l 3.77,-1.40331 z"
       id="path2958"
       style="fill:#c43827" />
    <path
       d="m 244.09537,340.76242 c 0,1.67465 0.0466,3.57541 0.24667,4.97875 h -3.37806 l -0.24805,-2.30918 h -0.14252 c -1.03466,1.67598 -2.69834,2.67098 -4.75944,2.67098 -3.13414,0 -5.58169,-2.44349 -5.58169,-6.24502 0,-5.52276 4.75259,-7.91961 10.0876,-7.9662 v -0.67562 c 0,-2.9409 -0.8291,-4.93485 -3.76863,-4.93485 -1.46908,0 -2.7929,0.40838 -3.91938,1.13059 l -0.83321,-2.44208 c 1.02918,-0.67972 3.18621,-1.44852 5.53372,-1.44852 4.75807,0 6.76299,2.85046 6.76299,7.73735 v 9.5038 z m -3.67545,-6.37789 c -1.95695,0 -6.5122,0.36178 -6.5122,5.11026 0,2.89705 1.57049,3.89334 2.88883,3.89334 1.66642,0 3.03958,-1.13059 3.47674,-3.30269 0.10004,-0.40701 0.14526,-0.86062 0.14526,-1.26763 v -4.43328 z"
       id="path2960"
       style="fill:#c43827" />
    <path
       d="m 259.93733,345.19847 c -0.83321,0.4522 -2.2557,0.8154 -3.91801,0.8154 -5.19523,0 -8.67059,-3.84814 -8.67059,-11.08666 0,-6.28882 3.42877,-11.4032 9.36128,-11.4032 1.26763,0 2.63805,0.31656 3.32325,0.67698 l -0.7318,2.85183 c -0.48512,-0.22612 -1.47182,-0.58791 -2.69423,-0.58791 -3.82071,0 -5.4885,4.16469 -5.4885,8.4623 0,5.11164 2.10495,8.19095 5.59128,8.19095 0.973,0 1.85417,-0.18089 2.68601,-0.58927 l 0.54131,2.66958 z"
       id="path2962"
       style="fill:#c43827" />
    <path
       d="m 148.02124,334.7888 c 0,8.46366 -4.21264,11.31547 -7.88672,11.31547 -4.26472,0 -7.69212,-3.57538 -7.69212,-11.27025 0,-7.96346 3.87004,-11.31138 7.93743,-11.31138 4.26198,0 7.64141,3.66448 7.64141,11.26616 z m -11.81021,0 c 0,3.622 0.68795,8.55411 4.11672,8.55411 3.2328,0 3.92075,-5.11301 3.92075,-8.55411 0,-3.34655 -0.68795,-8.50615 -4.01942,-8.50615 -3.37806,0 -4.01805,5.1596 -4.01805,8.50615 z"
       id="path2964"
       style="fill:#6f6e6f" />
    <path
       d="m 266.02059,334.02274 h 0.0973 c 0.43991,-0.86062 0.83321,-1.72261 1.27312,-2.44619 l 4.70188,-7.73735 h 4.06738 l -6.26689,9.2311 6.86028,12.66947 h -4.21813 l -5.14315,-10.31647 -1.37042,2.03643 v 8.28004 h -3.72478 v -31.3153 h 3.72478 v 19.59827 z"
       id="path2966"
       style="fill:#c43827" />
    <polygon
       points="559.787,672.509 559.787,674.821 559.342,674.821 559.342,672.509 558.234,672.509 558.234,672.196 560.892,672.196 560.892,672.509 "
       transform="matrix(1.3704123,0,0,1.3704123,-487.03741,-598.23312)"
       id="polygon2968"
       style="fill:#c43827" />
    <path
       d="m 282.15583,322.95255 h 0.87021 l 1.28819,3.04231 1.28544,-3.04231 h 0.86336 v 3.59733 h -0.57968 v -2.12414 c 0,-0.074 0,-0.19597 0.007,-0.36453 0.005,-0.16993 0.005,-0.3522 0.005,-0.54405 l -1.27585,3.03272 h -0.60709 l -1.29504,-3.03272 v 0.10963 c 0,0.0863 0.003,0.22064 0.011,0.40153 0.005,0.18226 0.01,0.31382 0.01,0.39742 v 2.12414 h -0.58105 v -3.59733 z"
       id="path2970"
       style="fill:#c43827" />
  </g>
</svg>
