<?xml version="1.0" encoding="UTF-8" standalone="no"?>
<!-- Created with Inkscape (http://www.inkscape.org/) -->

<svg
   xmlns:dc="http://purl.org/dc/elements/1.1/"
   xmlns:cc="http://creativecommons.org/ns#"
   xmlns:rdf="http://www.w3.org/1999/02/22-rdf-syntax-ns#"
   xmlns:svg="http://www.w3.org/2000/svg"
   xmlns="http://www.w3.org/2000/svg"
   version="1.1"
   width="1011.1"
   height="568.66248"
   id="svg4893"
   xml:space="preserve"><metadata
     id="metadata4899"><rdf:RDF><cc:Work
         rdf:about=""><dc:format>image/svg+xml</dc:format><dc:type
           rdf:resource="http://purl.org/dc/dcmitype/StillImage" /><dc:title></dc:title></cc:Work></rdf:RDF></metadata><defs
     id="defs4897" /><g
     transform="matrix(1.25,0,0,-1.25,0,568.6625)"
     id="g4901"><g
       transform="scale(0.1,0.1)"
       id="g4903"><path
         d="m 2711,2181.68 c 0,-93.89 -76.12,-170 -170,-170 -93.89,0 -170,76.11 -170,170 0,93.89 76.11,170 170,170 93.88,0 170,-76.11 170,-170"
         id="path4905"
         style="fill:#211c1d;fill-opacity:1;fill-rule:nonzero;stroke:none" /><path
         d="m 2773.87,1211.23 c 285.3,77.35 510.53,31.86 510.53,31.86 -459.16,-355.801 -510.53,-31.86 -510.53,-31.86 z m 4259.31,99.62 c 0,0 281.7,631.72 195.39,718.03 -40,40 -1151.07,-1046.251 -1225.54,-968.12 -74.46,78.12 887.59,932.94 815.54,1048.12 0,0 -137.11,164.52 -218.56,84.76 0,0 -383.67,-538.57 -1250.06,-234.16 0,0 -316.48,32.34 -353.93,-241.63 0,0 -303.03,-162.59 -454.4,-374.18 -173.94,-131.85 -366.9,-242.77 -461.39,-177.36 -186.66,129.24 486.67,999.24 1408.34,1702.57 0,0 1625.74,117.86 1880.01,52.6 30.54,-56.41 90.23,-94.73 158.89,-94.73 99.72,0 180.57,80.84 180.57,180.57 0,99.72 -80.85,180.57 -180.57,180.57 -65.98,0 -123.52,-35.5 -155.02,-88.33 -141.23,-6.08 -1638.08,-69.41 -1698.88,-25.68 0,0 390,400 519.44,500.44 0,0 213.71,182.76 119.02,254.82 -48.46,36.87 -151.17,5.19 -245.87,-82.01 0,0 -14.66,-150.77 -708.63,-712.84 0,0 -987.57,-145.08 -1535.77,-40.24 0,0 -241.33,-152.93 -154.76,-354.05 0,0 711.94,89.22 1425.61,195 0,0 -821.93,-937.07 -1037.37,-1177.61 -58.5,-65.31 -7.61,-81.92 -412.14,-172.71 0,0 -397.88,479.24 -21.21,784.22 0,0 -373.32,199.98 -743.32,-500.02 0,0 361.66,216.67 446.5,-345.72 0,0 -734.84,-200.94 -581.2,105.72 0,0 -688.98,-491.07 -817.14,-395.53 -128.16,95.53 135.69,522.72 296.84,735.53 0,0 -805.51,-661.24 -556.09,-923.95 249.42,-262.711 645.73,248.65 830.91,266.3 0,0 52.14,-352.148 285.32,-352.148 233.19,0 679.18,291.688 922.85,564.078 l 139.23,19.81 c 0,0 -382.93,-569.72 30.76,-569.72 183.23,0 403.08,152.08 591.18,321.51 -21.72,-82.36 -10.39,-167.79 55.71,-250.928 290.13,-364.953 1001.89,333.238 1131.01,449.148 0,0 -770.27,-493.5 -905.57,-298.8 -135.31,194.7 169.59,534.65 247.14,534.65 0,0 107.52,-189.09 729.23,0 0,0 90.98,-152.09 -66.68,-320.27 89.11,85.05 369.34,335.84 785.26,551.28 0,0 -537.47,-722.31 -883.87,-994.141 0,0 -36.68,-172.719 78.46,-232.269 115.15,-59.551 795.15,544.4 1030.85,712.57 l 55.2,-27.54 c 0,0 -456.28,-756.269 586.28,-202.56 532.82,282.98 778.03,585.1 778.03,585.1 0,0 -901,-503.18 -1055.6,-390.15"
         id="path4907"
         style="fill:#211c1d;fill-opacity:1;fill-rule:nonzero;stroke:none" /><path
         d="m 5628.02,1278.55 c 11.15,10.04 21.22,20.05 30.55,30.01 -20.1,-19.19 -30.55,-30.01 -30.55,-30.01"
         id="path4909"
         style="fill:#211c1d;fill-opacity:1;fill-rule:nonzero;stroke:none" /><path
         d="M 3583.57,3393.88 C 2238.09,2720.9 1352.54,2529.66 1352.54,2529.66 c 223.98,315.77 635.85,1588.16 635.85,1588.16 939.83,233.95 1199.61,218.31 1579.88,196.58 380.28,-21.73 568.39,-643.86 15.3,-920.52 z m 720,670.01 c -255,894.99 -2321.32,278.29 -2321.32,278.29 0,0 -19.43,90.9 -85.49,106.83 -66.06,15.93 -123.89,-37.89 -123.89,-37.89 C 1434.21,3612.36 591.063,3576.28 591.063,3576.28 531.887,3533.68 458.93,3317.64 590.277,3305.75 1016.9,3267.12 1635.12,3947.34 1635.12,3947.34 1666.66,3875.8 1264.11,2879.43 1264.11,2879.43 l -21.98,-41.04 C 1127.81,2788.76 975.215,2671 890.234,2411.68 831.617,2232.81 848.027,2173.72 878.883,2159.2 -660.797,-895.758 701.551,2011.68 701.551,2011.68 493.441,1923.13 43.082,944.199 3.56641,618.879 -35.5273,297.02 256.902,558.879 377.879,742.492 498.859,926.09 1304.79,2352.58 1304.79,2352.58 c 153.96,102.09 3260.36,793.22 2998.78,1711.31"
         id="path4911"
         style="fill:#211c1d;fill-opacity:1;fill-rule:nonzero;stroke:none" /><path
         d="M 889.906,0 C 780.824,0 700.359,85.8711 700.359,194.961 c 0,107.988 79.922,196.008 191.168,196.008 68.578,0 109.623,-24.297 147.423,-59.938 l -29.16,-31.32 c -31.86,30.25 -67.505,51.848 -118.806,51.848 -83.699,0 -146.339,-67.5 -146.339,-155.528 0,-88.019 63.183,-156.6013 146.339,-156.6013 51.844,0 85.86,19.9805 122.046,54.5391 l 28.08,-27.5391 C 1001.69,26.4688 958.484,0 889.906,0"
         id="path4913"
         style="fill:#211c1d;fill-opacity:1;fill-rule:nonzero;stroke:none" /><path
         d="m 1207.96,384.5 42.66,0 0,-338.5898 212.76,0 0,-39.41801 -255.42,0 0,378.00781"
         id="path4915"
         style="fill:#211c1d;fill-opacity:1;fill-rule:nonzero;stroke:none" /><path
         d="m 1788.46,351.559 c -86.4,0 -147.97,-69.118 -147.97,-155.528 0,-86.402 62.64,-156.6013 149.05,-156.6013 86.4,0 147.96,69.1213 147.96,155.5313 0,86.391 -62.64,156.598 -149.04,156.598 z M 1788.46,0 c -115.03,0 -192.25,90.1914 -192.25,194.961 0,104.75 78.3,196.008 193.33,196.008 115.02,0 192.24,-90.168 192.24,-194.938 C 1981.78,91.2695 1903.48,0 1788.46,0"
         id="path4917"
         style="fill:#211c1d;fill-opacity:1;fill-rule:nonzero;stroke:none" /><path
         d="m 2473.17,167.949 c 0,-110.1599 -63.18,-167.398219 -157.68,-167.398219 -93.42,0 -157.14,57.238319 -157.14,164.160219 l 0,219.789 42.66,0 0,-217.09 c 0,-81.5389 43.2,-127.4412 115.56,-127.4412 69.66,0 113.95,42.121 113.95,124.7422 l 0,219.789 42.65,0 0,-216.551"
         id="path4919"
         style="fill:#211c1d;fill-opacity:1;fill-rule:nonzero;stroke:none" /><path
         d="m 2797.7,345.07 -88.56,0 0,-299.1598 88.56,0 c 95.58,0 156.61,64.8008 156.61,149.0508 0,84.23 -61.03,150.109 -156.61,150.109 z m 0,-338.57781 -131.23,0 0,378.00781 131.23,0 c 118.8,0 200.88,-81.551 200.88,-188.469 C 2998.58,89.1094 2916.5,6.49219 2797.7,6.49219"
         id="path4921"
         style="fill:#211c1d;fill-opacity:1;fill-rule:nonzero;stroke:none" /><path
         d="m 3608.24,0 c -109.08,0 -189.54,85.8711 -189.54,194.961 0,107.988 79.92,196.008 191.16,196.008 68.59,0 109.63,-24.297 147.42,-59.938 l -29.16,-31.32 c -31.85,30.25 -67.5,51.848 -118.79,51.848 -83.71,0 -146.34,-67.5 -146.34,-155.528 0,-88.019 63.17,-156.6013 146.34,-156.6013 51.83,0 85.85,19.9805 122.04,54.5391 l 28.08,-27.5391 C 3720.03,26.4688 3676.83,0 3608.24,0"
         id="path4923"
         style="fill:#211c1d;fill-opacity:1;fill-rule:nonzero;stroke:none" /><path
         d="m 4091,351.559 c -86.41,0 -147.96,-69.118 -147.96,-155.528 0,-86.402 62.63,-156.6013 149.03,-156.6013 86.41,0 147.97,69.1213 147.97,155.5313 0,86.391 -62.65,156.598 -149.04,156.598 z M 4091,0 c -115.02,0 -192.25,90.1914 -192.25,194.961 0,104.75 78.3,196.008 193.32,196.008 115.03,0 192.25,-90.168 192.25,-194.938 C 4284.32,91.2695 4206.02,0 4091,0"
         id="path4925"
         style="fill:#211c1d;fill-opacity:1;fill-rule:nonzero;stroke:none" /><path
         d="m 4648.27,110.172 -2.16,0 -137.7,201.957 0,-305.63681 -41.58,0 0,378.00781 43.2,0 137.7,-206.289 137.71,206.289 43.19,0 0,-378.00781 -42.65,0 0,306.17981 -137.71,-202.5"
         id="path4927"
         style="fill:#211c1d;fill-opacity:1;fill-rule:nonzero;stroke:none" /><path
         d="m 5166.13,345.07 -95.57,0 0,-166.32 93.41,0 c 62.65,0 103.69,33.48 103.69,83.711 0,54.539 -40.5,82.609 -101.53,82.609 z m -3.78,-205.199 -91.79,0 0,-133.37881 -42.67,0 0,378.00781 141.48,0 c 85.33,0 141.49,-45.359 141.49,-120.418 0,-82.09 -68.04,-124.211 -148.51,-124.211"
         id="path4929"
         style="fill:#211c1d;fill-opacity:1;fill-rule:nonzero;stroke:none" /><path
         d="m 5789.83,167.949 c 0,-110.1599 -63.18,-167.398219 -157.67,-167.398219 -93.43,0 -157.15,57.238319 -157.15,164.160219 l 0,219.789 42.67,0 0,-217.09 c 0,-81.5389 43.19,-127.4412 115.55,-127.4412 69.66,0 113.95,42.121 113.95,124.7422 l 0,219.789 42.65,0 0,-216.551"
         id="path4931"
         style="fill:#211c1d;fill-opacity:1;fill-rule:nonzero;stroke:none" /><path
         d="m 6126.25,6.49219 -43.2,0 0,338.57781 -126.9,0 0,39.43 297,0 0,-39.43 -126.9,0 0,-338.57781"
         id="path4933"
         style="fill:#211c1d;fill-opacity:1;fill-rule:nonzero;stroke:none" /><path
         d="m 6429.18,6.49219 42.6719,0 0,378.008 -42.6719,0 0,-378.008 z"
         id="path4935"
         style="fill:#211c1d;fill-opacity:1;fill-rule:nonzero;stroke:none" /><path
         d="m 6952.98,384.5 41.58,0 0,-378.00781 -34.02,0 -244.09,309.95681 0,-309.95681 -41.58,0 0,378.00781 39.96,0 238.15,-302.9492 0,302.9492"
         id="path4937"
         style="fill:#211c1d;fill-opacity:1;fill-rule:nonzero;stroke:none" /><path
         d="m 7369.32,0 c -118.8,0 -192.25,86.4102 -192.25,194.961 0,104.211 76.14,196.008 189.54,196.008 63.72,0 103.15,-18.36 140.95,-50.207 l -27.54,-32.41 c -29.16,25.39 -61.56,43.207 -115.03,43.207 -83.7,0 -143.63,-70.739 -143.63,-155.528 0,-90.722 57.77,-157.6794 149.58,-157.6794 43.2,0 83.15,16.7382 109.08,37.8007 l 0,93.9567 -115.03,0 0,38.34 156.06,0 0,-150.6599 C 7485.96,26.4688 7433.04,0 7369.32,0"
         id="path4939"
         style="fill:#211c1d;fill-opacity:1;fill-rule:nonzero;stroke:none" /></g></g></svg>