<?xml version="1.0" encoding="UTF-8" standalone="no"?>
<!-- Created with Inkscape (http://www.inkscape.org/) -->

<svg
   xmlns:dc="http://purl.org/dc/elements/1.1/"
   xmlns:cc="http://creativecommons.org/ns#"
   xmlns:rdf="http://www.w3.org/1999/02/22-rdf-syntax-ns#"
   xmlns:svg="http://www.w3.org/2000/svg"
   xmlns="http://www.w3.org/2000/svg"
   version="1.1"
   width="234.78751"
   height="108.8125"
   id="svg2"
   xml:space="preserve"><metadata
     id="metadata8"><rdf:RDF><cc:Work
         rdf:about=""><dc:format>image/svg+xml</dc:format><dc:type
           rdf:resource="http://purl.org/dc/dcmitype/StillImage" /><dc:title></dc:title></cc:Work></rdf:RDF></metadata><defs
     id="defs6" /><g
     transform="matrix(1.25,0,0,-1.25,0,108.8125)"
     id="g10"><g
       transform="scale(0.1,0.1)"
       id="g12"><path
         d="m 573.535,235.207 c -1.25,0.191 -133.222,19.324 -134.558,19.527 -23.125,3.657 -34.883,15.063 -34.883,33.829 0,18.917 16.25,29.613 29.566,29.613 l 218.156,0 0,81.402 c 0,0 -215.539,0 -217.628,0 -69.059,0 -116.747,-52.519 -116.747,-111.015 0,-51.114 30.711,-104.059 100.997,-114.891 1.25,-0.227 133.308,-19.348 134.558,-19.539 23.227,-3.664 34.887,-15.117 34.887,-33.899 0,-18.906 -16.223,-29.5309 -29.66,-29.5309 l -159.344,0 0,-0.0664 c -32.246,-0.9179 -66.281,-25.664 -66.281,-74.1836 0,-2.1054 0,-4.5664 0,-7.24216 0,0 224.433,0 225.285,0 69.058,0 116.621,52.51566 116.621,111.02306 0,51.121 -30.656,104.121 -100.969,114.973 z m 1157.345,82.969 c 32.32,0.894 66.35,25.711 66.35,74.246 0,2.031 0,4.504 0,7.156 l -235.96,0 c -69.08,0 -116.72,-52.519 -116.72,-111.015 l 0,0 c 0,0 0,-167.477 0,-168.329 0,-58.5074 47.7,-111.02306 116.72,-111.02306 2.14,0 235.96,0 235.96,0 0,2.67576 0,5.13676 0,7.24216 0,48.5196 -34.03,73.2657 -66.35,74.1836 l 0,0.0664 -170.06,0 c -13.35,0 -29.63,10.6249 -29.63,29.5309 0,18.782 12.37,33.899 34.96,33.899 22.5,0 72.35,0 73.69,0 64.85,0.41 102.25,40.133 114.01,85.562 l -177.29,0 c -31.9,0 -45.37,-25.308 -45.37,-25.308 l 0,74.176 c 0,18.917 16.19,29.613 29.63,29.613 l 170.06,0 z M 1855,43.5156 c 0,-2.3164 -1.68,-4.0625 -4.87,-4.0625 l -6.22,0 0,8.2813 6.13,0 c 3.03,0 4.96,-1.4063 4.96,-4.2188 z m 6.29,0.4375 c 0,5.7422 -4.26,9.1992 -11.08,9.1992 l -12.5,0 0,-27.9179 6.2,0 0,8.9922 4.9,0 6.07,-8.9922 7.25,0 -6.88,10 c 3.58,1.25 6.04,4.1406 6.04,8.7187 z m 10.84,-5.5078 c 0,-12.8476 -10.2,-23.3398 -23.59,-23.3398 -13.44,0 -23.46,10.3554 -23.46,23.2226 0,12.9336 10.12,23.3985 23.61,23.3985 13.38,0 23.44,-10.3985 23.44,-23.2813 z m 6.19,0 c 0,15.9805 -13.03,29.1992 -29.63,29.1992 -16.66,0 -29.78,-13.2812 -29.78,-29.3164 0,-16.0312 13.06,-29.18747 29.63,-29.18747 16.62,0 29.78,13.35937 29.78,29.30467 z m -922.324,361.2887 0,-232.183 c 0,-48.496 -39.277,-87.8166 -87.742,-87.8166 -48.535,0 -87.844,39.3206 -87.844,87.8166 l 0,232.183 -84.531,0 0,-227.332 C 695.879,77.1953 773.035,0 868.254,0 963.406,0 1040.57,77.1953 1040.57,172.402 l 0,227.332 -84.574,0 z m 466.314,-279.5 c 0,-58.5074 -47.68,-111.02306 -116.71,-111.02306 -2.12,0 -217.57,0 -217.57,0 l 0,81.49216 218.01,0 c 13.35,0 29.59,10.6249 29.59,29.5309 0,18.782 -11.72,30.235 -34.95,33.899 -1.25,0.191 -133.28,19.312 -134.46,19.539 -70.34,10.832 -101.06,63.777 -101.06,114.891 0,58.496 47.69,111.015 116.77,111.015 2.1,0 217.6,0 217.6,0 l 0,-81.402 -218.12,0 c -13.34,0 -29.53,-10.696 -29.53,-29.613 0,-18.766 11.71,-30.172 34.88,-33.829 1.27,-0.203 133.3,-19.336 134.49,-19.527 70.35,-10.852 101.06,-63.852 101.06,-114.973"
         id="path14"
         style="fill:#231f20;fill-opacity:1;fill-rule:nonzero;stroke:none" /><path
         d="m 895.156,735.73 c 0.657,17.036 7.813,32.844 20.352,44.473 12.402,11.684 28.68,17.695 45.683,17.141 35.313,-1.27 62.909,-30.957 61.749,-66.172 -0.65,-17.031 -7.84,-32.813 -20.24,-44.453 -12.446,-11.641 -28.794,-17.703 -45.852,-17.11 -35.246,1.282 -62.785,30.907 -61.692,66.121 z M 792.629,859.199 c 0,0 -0.566,-30.996 -0.566,-34.433 -15.215,5.086 -126.125,40.906 -230.161,44.558 -88.086,3.067 -208.433,7.285 -378.496,-97.285 l -5.027,-3.121 C 98.3164,718.984 43.0938,657.473 14.2539,585.918 5.125,563.418 -6.98047,512.637 5.03516,464.891 10.2539,443.984 20,423.074 33.0938,404.227 62.5977,361.824 112.156,333.641 165.531,328.855 c 75.375,-6.687 132.465,27.129 152.821,90.493 13.933,43.789 0,107.918 -53.508,140.703 -43.528,26.637 -90.406,20.586 -117.531,2.656 -23.528,-15.676 -36.875,-39.863 -36.653,-66.586 0.496,-47.234 41.266,-72.359 70.512,-72.449 8.547,0 17.141,1.465 26.738,4.59 3.438,1.093 6.621,2.336 10.215,4.597 l 1.121,0.688 0.727,0.418 -0.285,-0.137 c 6.66,4.531 10.722,11.875 10.722,19.813 0,2.187 -0.312,4.375 -0.937,6.593 -3.465,11.985 -15.285,19.219 -27.571,16.907 l -1.621,-0.286 -2.246,-0.703 -3.277,-1.101 c -6.692,-1.711 -11.789,-1.821 -12.883,-1.821 -3.402,0.215 -20.371,5.254 -20.371,23.735 l 0,0.203 c 0.156,6.75 2.812,11.531 4.34,14.141 5.219,8.234 19.625,16.296 38.969,14.55 25.468,-2.175 43.781,-15.183 55.968,-39.785 11.25,-22.937 8.407,-51.094 -7.59,-71.719 -15.847,-20.468 -44.003,-29.187 -81.472,-25.109 -37.813,4.145 -69.781,25.883 -87.6838,59.77 -17.4727,33.043 -18.4688,72.312 -2.4375,102.5 38.2653,72.183 110.5313,71.453 150.0903,64.609 56.347,-9.738 141.691,-60.234 173.75,-177.016 l 77.875,0 c -9.653,29.731 -15.161,115.996 72.5,115.996 96.191,0 108.281,-67.714 135.566,-115.996 l 82.5,0 c -21.66,31.028 -36.938,65.625 -32.094,94.7 7.121,42.957 41.262,39.082 88.528,33.742 15.457,-1.821 33.093,-3.789 51.191,-4.211 50.879,-0.293 96.836,9.012 130.586,23.769 21.82,9.532 35.69,15.813 44.44,23.75 3.16,2.559 4.78,6.844 6.48,11.309 l 1.18,3.035 c 1.41,3.652 3.21,11.445 4.33,15.656 2.23,8.645 -5.42,4.043 -5.42,4.043 -14.72,-8.886 -51.79,-25.761 -86.44,-26.457 -42.871,-0.894 -129.375,43.164 -138.379,47.832 l -0.871,1.036 c -2.222,5.16 -15.152,35.89 -17.906,42.375 62.242,-41.047 113.875,-63.704 153.406,-67.208 44.02,-3.933 78.34,20.125 92.97,30.313 1.62,1.086 7.44,5 6.03,9.687 -5.72,20 -25.45,87 -41.91,103.985 -4.79,4.949 -8.62,9.738 -16.41,14.246 -62.926,36.68 -212.262,58.867 -219.274,59.863 0,0 -1.718,0.442 -1.687,-1.375"
         id="path16"
         style="fill:#6dc52d;fill-opacity:1;fill-rule:nonzero;stroke:none" /><path
         d="m 968.008,729.766 c -10.879,0 -19.727,5.964 -19.727,13.203 0,7.297 8.848,13.203 19.727,13.203 10.937,0 19.805,-5.906 19.805,-13.203 0,-7.239 -8.868,-13.203 -19.805,-13.203 z m -7.324,48.73 c -11.895,0.52 -23.145,-3.762 -31.836,-11.887 -8.719,-8.093 -13.789,-19.097 -14.16,-31.035 -0.782,-24.558 18.437,-45.281 43.007,-46.14 11.934,-0.371 23.243,3.859 31.961,11.906 8.723,8.203 13.724,19.207 14.154,31.051 0.76,24.621 -18.529,45.273 -43.126,46.105"
         id="path18"
         style="fill:#6dc52d;fill-opacity:1;fill-rule:nonzero;stroke:none" /></g></g></svg>